<?xml version="1.0" ?><!DOCTYPE svg  PUBLIC '-//W3C//DTD SVG 1.1//EN'  'http://www.w3.org/Graphics/SVG/1.1/DTD/svg11.dtd'><svg xmlns="http://www.w3.org/2000/svg" xmlns:xlink="http://www.w3.org/1999/xlink" xmlns:serif="http://www.serif.com/" width="100%" height="100%" viewBox="0 0 512 512" version="1.1" xml:space="preserve" style="fill-rule:evenodd;clip-rule:evenodd;stroke-linejoin:round;stroke-miterlimit:2;"><g transform="matrix(1,0,0,1,-1124,-562)"><g id="Icons"><path d="M1192.99,661.256L1167.42,661.256C1164.66,661.256 1162.42,663.494 1162.42,666.256L1162.42,1057.94C1162.42,1058.04 1162.42,1058.15 1162.43,1058.25L1162.43,1058.28C1162.47,1059 1162.66,1059.68 1162.98,1060.29L1162.99,1060.31L1163,1060.33C1163.26,1060.83 1163.61,1061.28 1164.01,1061.66L1164.03,1061.67C1164.7,1062.29 1165.55,1062.74 1166.49,1062.91C1166.8,1062.97 1167.12,1063 1167.44,1063L1539.27,1063C1542.03,1063 1544.27,1060.76 1544.27,1058L1544.27,977.201L1592.93,973.751C1595.68,973.556 1597.76,971.165 1597.57,968.41L1569.86,577.646C1569.67,574.892 1567.28,572.817 1564.52,573.013L1193.61,599.307C1190.85,599.502 1188.78,601.894 1188.97,604.648L1192.99,661.256ZM1534.27,933.613C1506,967.876 1465.83,993.917 1419.55,1013.32C1373.99,1032.42 1322.5,1045.1 1270.85,1053L1534.27,1053L1534.27,972.58C1534.27,972.553 1534.27,972.525 1534.27,972.498L1534.27,933.613ZM1534.27,913.169L1534.27,707.122L1172.42,707.122L1172.42,1052.02L1166.55,1053.08C1281.71,1032.68 1422.67,990.67 1459.15,852.55C1459.68,850.557 1461.38,849.092 1463.42,848.859C1465.47,848.626 1467.45,849.673 1468.41,851.496C1487.26,887.275 1508.86,908.699 1534.27,913.169ZM1530.29,922.576C1502.89,957.996 1462.46,984.486 1415.68,1004.1C1362.59,1026.35 1301.34,1039.72 1241.31,1046.95C1336.83,1021.18 1431.92,972.513 1465.45,866.715C1484.24,898.485 1505.9,917.385 1530.29,922.576L1530.29,922.576ZM1562.78,619.118L1201.84,644.705L1203.01,661.256L1539.27,661.256C1542.03,661.256 1544.27,663.494 1544.27,666.256L1544.27,918.833L1544.27,967.176L1587.24,964.13L1562.78,619.118ZM1300.31,831.451L1486.23,831.451C1488.99,831.451 1491.23,829.211 1491.23,826.451C1491.23,823.692 1488.99,821.451 1486.23,821.451L1300.31,821.451C1297.55,821.451 1295.31,823.692 1295.31,826.451C1295.31,829.211 1297.55,831.451 1300.31,831.451ZM1300.31,791.529L1486.23,791.529C1488.99,791.529 1491.23,789.289 1491.23,786.529C1491.23,783.77 1488.99,781.529 1486.23,781.529L1300.31,781.529C1297.55,781.529 1295.31,783.77 1295.31,786.529C1295.31,789.289 1297.55,791.529 1300.31,791.529ZM1217.86,754.295L1238.39,766.842C1240.45,768.102 1243.12,767.708 1244.72,765.906L1273.24,733.968C1275.08,731.91 1274.9,728.746 1272.84,726.908C1270.78,725.07 1267.62,725.25 1265.78,727.308L1240.04,756.134C1240.04,756.134 1223.07,745.762 1223.07,745.762C1220.71,744.323 1217.63,745.067 1216.2,747.422C1214.76,749.776 1215.5,752.856 1217.86,754.295ZM1300.31,751.607L1486.23,751.607C1488.99,751.607 1491.23,749.367 1491.23,746.607C1491.23,743.847 1488.99,741.607 1486.23,741.607L1300.31,741.607C1297.55,741.607 1295.31,743.847 1295.31,746.607C1295.31,749.367 1297.55,751.607 1300.31,751.607ZM1172.42,697.122L1534.27,697.122L1534.27,671.256L1198.39,671.256C1198.36,671.256 1198.33,671.256 1198.31,671.256L1172.42,671.256L1172.42,697.122ZM1562.07,609.143L1560.24,583.341C1516.47,586.444 1199.3,608.928 1199.3,608.928L1201.13,634.73L1562.07,609.143Z"/></g></g></svg>