<svg width="38" height="33" viewBox="0 0 38 33" fill="none" xmlns="http://www.w3.org/2000/svg">
<path fill-rule="evenodd" clip-rule="evenodd" d="M0 30.8125C0 30.3318 0.181082 29.8708 0.503411 29.5309C0.825739 29.191 1.26291 29 1.71875 29H36.0938C36.5496 29 36.9868 29.191 37.3091 29.5309C37.6314 29.8708 37.8125 30.3318 37.8125 30.8125C37.8125 31.2932 37.6314 31.7542 37.3091 32.0941C36.9868 32.434 36.5496 32.625 36.0938 32.625H1.71875C1.26291 32.625 0.825739 32.434 0.503411 32.0941C0.181082 31.7542 0 31.2932 0 30.8125ZM0 16.3125C0 15.8318 0.181082 15.3708 0.503411 15.0309C0.825739 14.691 1.26291 14.5 1.71875 14.5H36.0938C36.5496 14.5 36.9868 14.691 37.3091 15.0309C37.6314 15.3708 37.8125 15.8318 37.8125 16.3125C37.8125 16.7932 37.6314 17.2542 37.3091 17.5941C36.9868 17.934 36.5496 18.125 36.0938 18.125H1.71875C1.26291 18.125 0.825739 17.934 0.503411 17.5941C0.181082 17.2542 0 16.7932 0 16.3125ZM0 1.8125C0 1.3318 0.181082 0.870779 0.503411 0.530869C0.825739 0.19096 1.26291 0 1.71875 0H36.0938C36.5496 0 36.9868 0.19096 37.3091 0.530869C37.6314 0.870779 37.8125 1.3318 37.8125 1.8125C37.8125 2.2932 37.6314 2.75422 37.3091 3.09413C36.9868 3.43404 36.5496 3.625 36.0938 3.625H1.71875C1.26291 3.625 0.825739 3.43404 0.503411 3.09413C0.181082 2.75422 0 2.2932 0 1.8125Z" fill="white"/>
</svg>
