<svg width="60" height="60" viewBox="0 0 60 60" fill="none" xmlns="http://www.w3.org/2000/svg">
<path d="M0 29.101C0 12.3792 13.0988 0 30 0C46.9012 0 60 12.3792 60 29.101C60 45.8229 46.9012 58.202 30 58.202C26.9625 58.202 24.0525 57.8008 21.315 57.0508C20.7842 56.9033 20.2188 56.9431 19.7137 57.1633L13.7587 59.7958C13.3991 59.9545 13.006 60.0224 12.6139 59.9935C12.2219 59.9647 11.843 59.8399 11.5104 59.6303C11.1779 59.4207 10.9019 59.1326 10.7067 58.7914C10.5116 58.4502 10.4033 58.0662 10.3912 57.6733L10.2262 52.3368C10.2146 52.0121 10.1372 51.693 9.99859 51.3991C9.86 51.1051 9.66316 50.8424 9.42 50.6268C3.585 45.4066 0 37.8463 0 29.101ZM20.7975 23.6296L11.985 37.6101C11.1413 38.9526 12.7875 40.4639 14.0512 39.5076L23.52 32.3224C23.8314 32.0858 24.2114 31.9571 24.6025 31.9558C24.9936 31.9544 25.3744 32.0805 25.6875 32.3149L32.6963 37.5726C33.1935 37.9455 33.7627 38.2114 34.3678 38.3534C34.973 38.4954 35.601 38.5105 36.2122 38.3978C36.8235 38.285 37.4048 38.0469 37.9194 37.6983C38.4341 37.3497 38.871 36.8983 39.2025 36.3725L48.015 22.392C48.8625 21.0495 47.2125 19.5382 45.9487 20.4945L36.48 27.6797C36.1686 27.9163 35.7886 28.045 35.3975 28.0463C35.0064 28.0477 34.6256 27.9216 34.3125 27.6872L27.3038 22.4258C26.8065 22.0529 26.2373 21.787 25.6322 21.645C25.027 21.5029 24.399 21.4878 23.7878 21.6006C23.1765 21.7133 22.5952 21.9515 22.0806 22.3C21.5659 22.6486 21.129 23.1038 20.7975 23.6296Z" fill="white"/>
</svg>
